<svg id="b11b04ee-e836-4edc-b1f9-0098556ed6a8" data-name="Слой 1" xmlns="http://www.w3.org/2000/svg" xmlns:xlink="http://www.w3.org/1999/xlink" viewBox="0 0 86 100"><defs><style>.b07ce1ff-43d3-44fd-9238-b0daa4e285d6{fill:#303030;}.ad3bb5a1-a5fb-4b60-ab86-42f6b099f640{fill:none;}.a5459304-63f8-4679-9091-77d3579f5952{fill:url(#f0fd6307-2f59-4cf4-941b-f20738413d3a);}.f2965db4-c124-41d9-abc4-da33d72f4104{fill:url(#eb7870b8-91fe-4988-a603-594adc4ead18);}.e8c3f87a-4574-457a-bc34-4046e78ba959{fill:url(#afd3a5c2-651e-46b6-9416-c0d05259634c);}.f75e77c1-546d-4764-90a3-1a4004f01faf{fill:url(#a0d8bf8c-dd11-4677-ac13-051ff091b7aa);}</style><radialGradient id="f0fd6307-2f59-4cf4-941b-f20738413d3a" cx="960.15" cy="407.33" r="37.61" gradientUnits="userSpaceOnUse"><stop offset="0.63" stop-color="#c2ff00"/><stop offset="0.74" stop-color="#81b71a"/><stop offset="0.83" stop-color="#4c7d2f"/><stop offset="0.9" stop-color="#27533e"/><stop offset="0.96" stop-color="#103948"/><stop offset="1" stop-color="#07304b"/></radialGradient><radialGradient id="eb7870b8-91fe-4988-a603-594adc4ead18" cx="960" cy="408.46" r="42.17" gradientUnits="userSpaceOnUse"><stop offset="0.82" stop-color="#07304b"/><stop offset="0.92" stop-color="#072e49"/><stop offset="0.96" stop-color="#052842"/><stop offset="0.99" stop-color="#021e37"/><stop offset="1" stop-color="#00162e"/></radialGradient><linearGradient id="afd3a5c2-651e-46b6-9416-c0d05259634c" x1="960.14" y1="406.59" x2="960.14" y2="348.23" gradientUnits="userSpaceOnUse"><stop offset="0" stop-color="#baff00"/><stop offset="0.25" stop-color="#b9fa05"/><stop offset="0.57" stop-color="#b7ed15"/><stop offset="0.93" stop-color="#b3d72f"/><stop offset="1" stop-color="#b2d235"/></linearGradient><linearGradient id="a0d8bf8c-dd11-4677-ac13-051ff091b7aa" x1="43" y1="48.59" x2="43" y2="18.78" gradientUnits="userSpaceOnUse"><stop offset="0" stop-color="#baff00"/><stop offset="0.01" stop-color="#b8fe01" stop-opacity="0.99"/><stop offset="0.17" stop-color="#88ea15" stop-opacity="0.73"/><stop offset="0.34" stop-color="#5ed925" stop-opacity="0.51"/><stop offset="0.49" stop-color="#3dca33" stop-opacity="0.33"/><stop offset="0.64" stop-color="#22bf3e" stop-opacity="0.18"/><stop offset="0.78" stop-color="#0fb746" stop-opacity="0.08"/><stop offset="0.9" stop-color="#04b34a" stop-opacity="0.02"/><stop offset="1" stop-color="#00b14c" stop-opacity="0"/></linearGradient></defs><title>Безымянный-1</title><path class="b07ce1ff-43d3-44fd-9238-b0daa4e285d6" d="M975.42,371l-.49,1.66,0,.05-.07.25h0l-.48,1.62a35.17,35.17,0,0,1,21.53,27.69,34.3,34.3,0,0,1,.31,4.66c0,19.43-16.24,35.25-36.19,35.25S923.81,426.38,923.81,407a34.51,34.51,0,0,1,1.12-8.77,35.28,35.28,0,0,1,21-23.68l-.49-1.63,0-.14,0-.15-.5-1.67a38.52,38.52,0,0,0-4.33,70A40.89,40.89,0,0,0,977,442.19l.09,0A38.54,38.54,0,0,0,975.42,371Z" transform="translate(-917 -349.79)"/><polyline class="ad3bb5a1-a5fb-4b60-ab86-42f6b099f640" points="28.9 24.71 28.41 23.08 28.37 22.94 28.33 22.79 28.32 22.79 27.83 21.12"/><path class="ad3bb5a1-a5fb-4b60-ab86-42f6b099f640" d="M975.42,371l-.49,1.66,0,.05-.07.25h0l-.48,1.62" transform="translate(-917 -349.79)"/><path class="a5459304-63f8-4679-9091-77d3579f5952" d="M997.76,407.33a37.62,37.62,0,1,1-52.39-34.6l.53,1.77h0l1.47,5a29,29,0,1,0,25.55,0l1.43-4.87h0l.56-1.87a37.63,37.63,0,0,1,22.76,32C997.73,405.61,997.76,406.47,997.76,407.33Z" transform="translate(-917 -349.79)"/><path class="f2965db4-c124-41d9-abc4-da33d72f4104" d="M1003,405.93a43.05,43.05,0,0,0-26.26-38.75l-1,2.61-.28,1-.08.26-.49,1.66,0,.05-.07.25a36.93,36.93,0,1,1-29.43-.11l0-.14,0-.15-.5-1.67-.08-.26v0l-.36-1.24-.84-2.23c-1.37.57-2.7,1.18-4,1.83l-.05,0a43.13,43.13,0,0,0-21.84,30.16s0,0,0,0a43.23,43.23,0,0,0-.67,7.6,42.71,42.71,0,0,0,2.8,15.26,43.24,43.24,0,0,0,16.54,20.63,42.94,42.94,0,0,0,44.11,1.93l0,0a43.15,43.15,0,0,0,21.65-29.14,2.93,2.93,0,0,1,0-.29,42.81,42.81,0,0,0,.82-8.37C1003,406.5,1003,406.22,1003,405.93Z" transform="translate(-917 -349.79)"/><path class="e8c3f87a-4574-457a-bc34-4046e78ba959" d="M960.14,406.59,976.25,352A59.27,59.27,0,0,0,944,352Z" transform="translate(-917 -349.79)"/><polygon class="f75e77c1-546d-4764-90a3-1a4004f01faf" points="34.42 19.57 43.14 48.59 51.59 19.57 34.42 19.57"/></svg>