<svg id="b09b7ada-9851-4903-82c3-c1f35c55d00a" data-name="Logo VitasOnLine" xmlns="http://www.w3.org/2000/svg" xmlns:xlink="http://www.w3.org/1999/xlink" viewBox="0 0 240 120"><defs><style>.bdeaf1c6-824b-41e3-be11-9acdf23d6933{fill:#bf0;}.fe2eaba4-58cc-42de-9b83-61de8800b05d{fill:url(#a617d6e6-a5eb-455f-966a-60e53f53cedb);}.b6847bd0-7d6a-4531-8837-f622ec09c1c8{fill:#303030;}.ff2a0dca-4e5d-4d25-86f8-aba15c9ac755{fill:none;}.a059c83c-070b-4cf1-81c5-5e679d4c7034{fill:url(#b4d8da44-b622-45b7-8beb-a8ee907b648c);}.b5ab8867-9119-44cb-b3b4-376564e3049f{fill:url(#b3658e2f-ce49-46c9-93be-fb0083a5d4f8);}.a1922fd7-add4-4693-9e97-3c83ea233e7b{fill:url(#ff96aee1-fb8b-4642-9dc0-f1c2c7e47bbf);}.f291dd92-8f71-42d8-b6e2-4ece9e8b1170{fill:url(#b8ce5d51-f9b4-4079-b8cf-05f472af7ee0);}.b72aa0f4-4ca4-4c00-98e0-0cb0fe540f5b{fill:#07304b;}</style><radialGradient id="a617d6e6-a5eb-455f-966a-60e53f53cedb" cx="16.38" cy="-489.05" r="42.66" gradientTransform="translate(26.94 215) scale(1.41 0.22)" gradientUnits="userSpaceOnUse"><stop offset="0" stop-color="#12232f"/><stop offset="0.53" stop-color="#9ba3a8" stop-opacity="0.42"/><stop offset="1" stop-color="#fff" stop-opacity="0"/></radialGradient><radialGradient id="b4d8da44-b622-45b7-8beb-a8ee907b648c" cx="50.15" cy="58.33" r="37.61" gradientUnits="userSpaceOnUse"><stop offset="0.63" stop-color="#c2ff00"/><stop offset="0.74" stop-color="#81b71a"/><stop offset="0.83" stop-color="#4c7d2f"/><stop offset="0.9" stop-color="#27533e"/><stop offset="0.96" stop-color="#103948"/><stop offset="1" stop-color="#07304b"/></radialGradient><radialGradient id="b3658e2f-ce49-46c9-93be-fb0083a5d4f8" cx="50" cy="59.46" r="42.17" gradientUnits="userSpaceOnUse"><stop offset="0.82" stop-color="#07304b"/><stop offset="0.92" stop-color="#072e49"/><stop offset="0.96" stop-color="#052842"/><stop offset="0.99" stop-color="#021e37"/><stop offset="1" stop-color="#00162e"/></radialGradient><linearGradient id="ff96aee1-fb8b-4642-9dc0-f1c2c7e47bbf" x1="50.14" y1="57.59" x2="50.14" y2="-0.77" gradientUnits="userSpaceOnUse"><stop offset="0" stop-color="#baff00"/><stop offset="0.25" stop-color="#b9fa05"/><stop offset="0.57" stop-color="#b7ed15"/><stop offset="0.93" stop-color="#b3d72f"/><stop offset="1" stop-color="#b2d235"/></linearGradient><linearGradient id="b8ce5d51-f9b4-4079-b8cf-05f472af7ee0" x1="50" y1="49.39" x2="50" y2="19.57" gradientUnits="userSpaceOnUse"><stop offset="0" stop-color="#baff00"/><stop offset="0.01" stop-color="#b8fe01" stop-opacity="0.99"/><stop offset="0.17" stop-color="#88ea15" stop-opacity="0.73"/><stop offset="0.34" stop-color="#5ed925" stop-opacity="0.51"/><stop offset="0.49" stop-color="#3dca33" stop-opacity="0.33"/><stop offset="0.64" stop-color="#22bf3e" stop-opacity="0.18"/><stop offset="0.78" stop-color="#0fb746" stop-opacity="0.08"/><stop offset="0.9" stop-color="#04b34a" stop-opacity="0.02"/><stop offset="1" stop-color="#00b14c" stop-opacity="0"/></linearGradient></defs><title>Logo_VitasOnLine</title><polygon class="bdeaf1c6-824b-41e3-be11-9acdf23d6933" points="125.27 11.79 166 11.79 151.57 57.79 111.69 57.79 125.27 11.79"/><ellipse class="fe2eaba4-58cc-42de-9b83-61de8800b05d" cx="50" cy="108.78" rx="70" ry="8.22"/><path class="b6847bd0-7d6a-4531-8837-f622ec09c1c8" d="M65.42,22l-.49,1.66,0,.05-.07.25s0,0,0,0l-.48,1.62A35.17,35.17,0,0,1,85.88,53.29,34.3,34.3,0,0,1,86.19,58C86.19,77.38,70,93.2,50,93.2S13.81,77.38,13.81,58a34.51,34.51,0,0,1,1.12-8.77,35.28,35.28,0,0,1,21-23.68l-.49-1.63,0-.14,0-.15-.5-1.67A38.52,38.52,0,0,0,30.5,92,40.89,40.89,0,0,0,67,93.19l.09,0A38.54,38.54,0,0,0,65.42,22Z"/><polyline class="ff2a0dca-4e5d-4d25-86f8-aba15c9ac755" points="35.9 25.5 35.41 23.87 35.37 23.73 35.33 23.58 35.32 23.58 34.83 21.91"/><path class="ff2a0dca-4e5d-4d25-86f8-aba15c9ac755" d="M65.42,22l-.49,1.66,0,.05-.07.25s0,0,0,0l-.48,1.62"/><path class="a059c83c-070b-4cf1-81c5-5e679d4c7034" d="M87.76,58.33a37.62,37.62,0,1,1-52.39-34.6l.53,1.77h0l1.47,5a29,29,0,1,0,25.55,0l1.43-4.87h0l.56-1.87a37.63,37.63,0,0,1,22.76,32C87.73,56.61,87.76,57.47,87.76,58.33Z"/><path class="b5ab8867-9119-44cb-b3b4-376564e3049f" d="M93,56.93A43.05,43.05,0,0,0,66.73,18.18l-1,2.61-.28,1-.08.26-.49,1.66,0,.05-.07.25a36.93,36.93,0,1,1-29.43-.11l0-.14,0-.15-.5-1.67-.08-.26v0l-.36-1.24-.84-2.23c-1.37.57-2.7,1.18-4,1.83l-.05,0A43.13,43.13,0,0,0,7.68,50.15s0,0,0,0A43.23,43.23,0,0,0,7,57.79,42.71,42.71,0,0,0,9.8,73.05,43.24,43.24,0,0,0,26.34,93.68a42.94,42.94,0,0,0,44.11,1.93l0,0A43.15,43.15,0,0,0,92.13,66.45a2.93,2.93,0,0,1,.05-.29A42.81,42.81,0,0,0,93,57.79C93,57.5,93,57.22,93,56.93Z"/><path class="a1922fd7-add4-4693-9e97-3c83ea233e7b" d="M50.14,57.59,66.25,3A59.27,59.27,0,0,0,34,3Z"/><polygon class="f291dd92-8f71-42d8-b6e2-4ece9e8b1170" points="41.42 20.37 50.14 49.39 58.59 20.37 41.42 20.37"/><path class="b72aa0f4-4ca4-4c00-98e0-0cb0fe540f5b" d="M115,18.52h5.11L109.55,52.07h-5.2L93.84,18.52h5.07l6.29,20.86c.33,1,.68,2.28,1,3.84s.61,2.74.72,3.51c.18-1.17.45-2.51.82-4s.68-2.67.91-3.4Z"/><path class="b72aa0f4-4ca4-4c00-98e0-0cb0fe540f5b" d="M125.08,52.07V18.52H130V52.07Z"/><path class="b72aa0f4-4ca4-4c00-98e0-0cb0fe540f5b" d="M148.37,52.07h-4.92V23.22h-8.87v-4.7h22.66v4.7h-8.87Z"/><path class="b72aa0f4-4ca4-4c00-98e0-0cb0fe540f5b" d="M178.55,52.07l-3-9.32H164l-3,9.32h-5.19l11.27-33.69h5.36l11.28,33.69Zm-4.31-14-2.82-9.14c-.21-.61-.49-1.58-.86-2.89s-.61-2.28-.75-2.89a54.43,54.43,0,0,1-1.63,6.17L165.46,38Z"/><path class="b72aa0f4-4ca4-4c00-98e0-0cb0fe540f5b" d="M205.15,43a8.83,8.83,0,0,1-2.91,7q-2.91,2.55-8,2.55a17.43,17.43,0,0,1-8.37-1.77V45.58a21.63,21.63,0,0,0,4.38,1.7,17,17,0,0,0,4.32.62,6.4,6.4,0,0,0,4.32-1.24,4.24,4.24,0,0,0,1.39-3.33A4.39,4.39,0,0,0,199,40.14,18.62,18.62,0,0,0,193.7,37a14.06,14.06,0,0,1-5.81-4.25,9.64,9.64,0,0,1-1.69-5.74,8.43,8.43,0,0,1,2.68-6.61,10.41,10.41,0,0,1,7.2-2.41,19.32,19.32,0,0,1,8.61,2.12l-1.56,4.47A17.35,17.35,0,0,0,196,22.74a5.16,5.16,0,0,0-3.63,1.16A4,4,0,0,0,191.09,27a4.72,4.72,0,0,0,.49,2.24A5.32,5.32,0,0,0,193.21,31a27.67,27.67,0,0,0,4.08,2.18A21.51,21.51,0,0,1,202.16,36a8.24,8.24,0,0,1,2.26,3A10,10,0,0,1,205.15,43Z"/><rect class="b72aa0f4-4ca4-4c00-98e0-0cb0fe540f5b" x="142" y="66.79" width="98" height="2"/><path class="b72aa0f4-4ca4-4c00-98e0-0cb0fe540f5b" d="M104.63,77.48a6.47,6.47,0,0,1,3.62,1.08,7.46,7.46,0,0,1,2.65,3,8.76,8.76,0,0,1,1,4,9,9,0,0,1-.93,4.1,7.58,7.58,0,0,1-2.59,3,6.58,6.58,0,0,1-3.63,1.09,6.44,6.44,0,0,1-5-2.35,8.47,8.47,0,0,1-2.09-5.75,8.36,8.36,0,0,1,2.31-6.05A6.36,6.36,0,0,1,104.63,77.48Zm.07,3.65a3.3,3.3,0,0,0-2.64,1.27,4.82,4.82,0,0,0-1,3.23,4.9,4.9,0,0,0,1.06,3.26,3.27,3.27,0,0,0,2.65,1.24,3.32,3.32,0,0,0,2.65-1.27,5.53,5.53,0,0,0,0-6.5A3.36,3.36,0,0,0,104.7,81.13Z"/><path class="b72aa0f4-4ca4-4c00-98e0-0cb0fe540f5b" d="M114.62,77.83H118V79.4a8.24,8.24,0,0,1,2.09-1.55,4.58,4.58,0,0,1,1.93-.45,4.41,4.41,0,0,1,3.43,1.6,6,6,0,0,1,1.2,4l0,10.23h-3.36l0-6.78a19.2,19.2,0,0,0-.24-3.67,2.57,2.57,0,0,0-.76-1.39A2,2,0,0,0,121,81a2.37,2.37,0,0,0-1.77.8,4.27,4.27,0,0,0-1,2.18,19.19,19.19,0,0,0-.14,3.14l0,6.21-3.41,0Z"/><path class="b72aa0f4-4ca4-4c00-98e0-0cb0fe540f5b" d="M129.56,71.8l3.4,0,.09,21.45h-3.4Z"/><path class="b72aa0f4-4ca4-4c00-98e0-0cb0fe540f5b" d="M137.39,71.37a2,2,0,0,1,1.54.73,2.68,2.68,0,0,1,.65,1.79,2.63,2.63,0,0,1-.63,1.77,2,2,0,0,1-1.52.74,2,2,0,0,1-1.55-.74,2.68,2.68,0,0,1-.65-1.81,2.58,2.58,0,0,1,.63-1.75A1.94,1.94,0,0,1,137.39,71.37Zm-1.68,6.37h3.41l.06,15.47-3.41,0Z"/><path class="b72aa0f4-4ca4-4c00-98e0-0cb0fe540f5b" d="M142.21,77.72l3.41,0v1.59a7.91,7.91,0,0,1,2.09-1.56,4.56,4.56,0,0,1,1.92-.44,4.38,4.38,0,0,1,3.44,1.59,6,6,0,0,1,1.2,4l0,10.22-3.37,0,0-6.78a18.76,18.76,0,0,0-.23-3.68,2.51,2.51,0,0,0-.77-1.38,1.92,1.92,0,0,0-1.34-.47,2.35,2.35,0,0,0-1.77.79,4.47,4.47,0,0,0-1,2.19,20.86,20.86,0,0,0-.13,3.14l0,6.21h-3.4Z"/><path class="b72aa0f4-4ca4-4c00-98e0-0cb0fe540f5b" d="M171.19,86.46l-10.94,0a4.33,4.33,0,0,0,1.28,2.62,3.6,3.6,0,0,0,2.63,1,4.24,4.24,0,0,0,3.27-1.53l2.88,1.52a7.11,7.11,0,0,1-2.56,2.58,7.25,7.25,0,0,1-3.55.85A6.6,6.6,0,0,1,159,91.22a8.44,8.44,0,0,1-2-5.74,8.71,8.71,0,0,1,2-5.89,6.33,6.33,0,0,1,5-2.36,6.54,6.54,0,0,1,5.23,2.32,9.17,9.17,0,0,1,2,6.17Zm-3.42-3a3.91,3.91,0,0,0-1.34-2.1,3.58,3.58,0,0,0-2.31-.8,3.76,3.76,0,0,0-2.49.92,5.23,5.23,0,0,0-1.25,2Z"/><rect class="ff2a0dca-4e5d-4d25-86f8-aba15c9ac755" y="0.4" width="240" height="120"/></svg>